<svg width="31" height="31" viewBox="0 0 31 31" fill="none" xmlns="http://www.w3.org/2000/svg">
<path d="M20.2432 2H10.7568C5.92053 2 2 5.92053 2 10.7568V20.2432C2 25.0795 5.92053 29 10.7568 29H20.2432C25.0795 29 29 25.0795 29 20.2432V10.7568C29 5.92053 25.0795 2 20.2432 2Z" stroke="black" stroke-width="3"/>
<path d="M20.2432 2H10.7568C5.92053 2 2 5.92053 2 10.7568V20.2432C2 25.0795 5.92053 29 10.7568 29H20.2432C25.0795 29 29 25.0795 29 20.2432V10.7568C29 5.92053 25.0795 2 20.2432 2Z" stroke="black" stroke-width="3"/>
<path d="M20.2432 2H10.7568C5.92053 2 2 5.92053 2 10.7568V20.2432C2 25.0795 5.92053 29 10.7568 29H20.2432C25.0795 29 29 25.0795 29 20.2432V10.7568C29 5.92053 25.0795 2 20.2432 2Z" stroke="black" stroke-width="3"/>
<path d="M9 21.1409V13.2203M15.914 21.1409V8.02435M22.4458 21.1409V11.1963" stroke="black" stroke-width="3" stroke-linecap="round"/>
<path d="M9 21.1409V13.2203M15.914 21.1409V8.02435M22.4458 21.1409V11.1963" stroke="black" stroke-width="3" stroke-linecap="round"/>
<path d="M9 21.1409V13.2203M15.914 21.1409V8.02435M22.4458 21.1409V11.1963" stroke="black" stroke-width="3" stroke-linecap="round"/>
</svg>
