<svg width="50" height="50" viewBox="0 0 50 50" fill="none" xmlns="http://www.w3.org/2000/svg">
<path d="M43.4439 0H6.55377C2.94024 0 0 2.94024 0 6.55694V43.4431C0 47.059 2.94104 50 6.55377 50H43.4439C47.0582 50 50 47.059 50 43.4431V6.55694C50 2.94104 47.0582 0 43.4439 0ZM36.8735 10.8224C32.5455 11.2414 32.2944 6.30267 32.2944 6.30267C37.3614 6.69634 36.8735 10.8224 36.8735 10.8224ZM15.2208 15.803C15.8822 18.3829 14.0501 20.5271 11.6699 20.7045C11.582 17.6906 13.22 16.5515 15.2208 15.803ZM15.2208 20.4502C15.8822 23.0277 14.0501 25.1727 11.6699 25.3493C11.582 22.337 13.22 21.1972 15.2208 20.4502ZM15.2208 25.0966C15.8822 27.6733 14.0501 29.8191 11.6699 29.9941C11.582 26.9818 13.22 25.8452 15.2208 25.0966ZM9.62391 11.8426C11.1685 13.3214 12.2251 15.0189 10.9507 17.7492C8.83578 16.645 8.00171 13.9503 9.62391 11.8426ZM6.94823 17.0157C8.94747 17.7658 10.5871 18.9056 10.4976 21.9188C8.11736 21.7398 6.28366 19.5964 6.94823 17.0157ZM6.94823 21.6637C8.94747 22.4107 10.5871 23.5505 10.4976 26.5628C8.11736 26.387 6.28366 24.2412 6.94823 21.6637ZM6.94823 26.3093C8.94747 27.0594 10.5871 28.1945 10.4976 31.2084C8.11736 31.0334 6.28366 28.8876 6.94823 26.3093ZM16.9199 44.6463L25 30.6468L33.0785 44.6463H16.9199ZM8.13874 35.1095L7.62705 33.2298L41.862 23.9156L42.3706 25.7968L8.13874 35.1095ZM42.8379 19.3492C42.8379 19.3492 41.6292 21.6225 40.6977 22.6396C40.2422 23.0942 39.5666 23.4182 38.8759 23.4182C38.4748 23.4195 38.0794 23.3244 37.7227 23.1409C37.3661 22.9574 37.0588 22.691 36.8267 22.3639C36.5944 22.6912 36.2869 22.9578 35.93 23.1413C35.5731 23.3248 35.1773 23.4197 34.776 23.4182C34.0861 23.4182 33.4104 23.0942 32.955 22.6396C32.0227 21.6225 30.8147 19.3492 30.8147 19.3492C30.1375 17.9741 29.7747 16.9104 29.7747 15.8347C29.7747 13.544 31.629 11.5566 33.9253 11.5566C35.0564 11.5566 36.0782 12.0097 36.8275 12.7424C37.6016 11.9817 38.6437 11.5558 39.7289 11.5566C42.0252 11.5566 43.8795 13.544 43.8795 15.8347C43.8787 16.9104 43.5151 17.9741 42.8379 19.3492Z" fill="#07A3B2"/>
</svg>
