<svg width="27" height="27" viewBox="0 0 27 27" fill="none" xmlns="http://www.w3.org/2000/svg">
<path d="M26.4412 13.2788L14.1736 0.29569C14.0853 0.201957 13.9804 0.127593 13.8649 0.0768548C13.7494 0.0261165 13.6256 0 13.5006 0C13.3755 0 13.2517 0.0261165 13.1362 0.0768548C13.0207 0.127593 12.9158 0.201957 12.8275 0.29569L0.559917 13.2788C0.202523 13.6573 0 14.1715 0 14.7077C0 15.8212 0.854767 16.7264 1.9061 16.7264H3.19868V25.9906C3.19868 26.5489 3.62457 27 4.15173 27H11.5945V19.9344H14.9301V27H22.8494C23.3765 27 23.8024 26.5489 23.8024 25.9906V16.7264H25.095C25.6013 16.7264 26.0868 16.5151 26.4442 16.1334C27.1858 15.3449 27.1858 14.0674 26.4412 13.2788Z" fill="black"/>
</svg>
