<svg width="41" height="41" viewBox="0 0 41 41" fill="none" xmlns="http://www.w3.org/2000/svg">
<path d="M35.8714 0H5.11298C2.47141 0 0 2.47794 0 5.11826V35.8681C0 38.5084 2.48245 41 5.12273 41H35.8714C38.5143 41 41 38.5221 41 35.883V5.12086C41 2.48054 38.5143 0 35.8721 0H35.8714ZM21.6243 4.77141C22.2707 4.77127 22.9035 4.95736 23.447 5.30741C23.9904 5.65747 24.4215 6.15668 24.6887 6.74532H22.7785C22.7136 6.48513 22.5634 6.25414 22.3521 6.08912C22.1407 5.9241 21.8801 5.83453 21.612 5.83469C21.0462 5.83469 20.574 6.22375 20.4428 6.74532H18.5592C18.8271 6.15717 19.2583 5.65841 19.8017 5.30845C20.345 4.95848 20.9781 4.77207 21.6243 4.77141ZM18.3131 7.53969H20.5175C20.6139 7.74861 20.7681 7.92554 20.9619 8.04955C21.1557 8.17357 21.3809 8.23948 21.611 8.23948C21.8411 8.23948 22.0663 8.17357 22.2601 8.04955C22.4539 7.92554 22.6081 7.74861 22.7045 7.53969H24.9362C24.9706 7.73325 24.9927 7.93136 24.9927 8.13596C24.9925 8.57796 24.9053 9.0156 24.7359 9.42386C24.5665 9.83213 24.3184 10.203 24.0057 10.5154C23.6929 10.8277 23.3217 11.0753 22.9132 11.2441C22.5047 11.413 22.067 11.4996 21.625 11.4992C20.7325 11.4995 19.8764 11.1455 19.2448 10.5148C18.6133 9.88411 18.2581 9.02847 18.2572 8.13596C18.2572 7.93136 18.278 7.73325 18.3137 7.53969H18.3131ZM4.67521 12.8483C3.48075 10.6639 4.02959 7.99761 5.85213 6.44199L5.24678 5.3339C5.23361 5.30994 5.2253 5.28362 5.22231 5.25644C5.21933 5.22926 5.22174 5.20176 5.2294 5.17552C5.23706 5.14927 5.24983 5.12479 5.26697 5.10349C5.2841 5.08218 5.30528 5.06447 5.32927 5.05136L6.84199 4.22711C6.8904 4.20076 6.94729 4.19472 7.00015 4.21031C7.05302 4.2259 7.09752 4.26185 7.12388 4.31025L7.73053 5.41704C10.024 4.72985 12.5655 5.70738 13.7587 7.89303L10.8274 9.49347C11.0541 9.91982 11.1034 10.4184 10.9647 10.8809C10.826 11.3434 10.5104 11.7325 10.0866 11.9638C9.66271 12.195 9.16474 12.2498 8.70077 12.1161C8.23679 11.9824 7.84427 11.6711 7.60842 11.2498L4.67651 12.8483H4.67521ZM13.7165 27.3288C13.7163 27.7282 13.6374 28.1237 13.4843 28.4926C13.3313 28.8615 13.107 29.1966 12.8243 29.4788C12.5416 29.761 12.2061 29.9847 11.837 30.1371C11.4678 30.2896 11.0722 30.3678 10.6728 30.3673C10.2734 30.3678 9.87785 30.2896 9.50868 30.1371C9.13952 29.9847 8.80402 29.761 8.52136 29.4788C8.2387 29.1966 8.01442 28.8615 7.86134 28.4926C7.70826 28.1237 7.62938 27.7282 7.62921 27.3288C7.62955 26.9295 7.70855 26.5342 7.86171 26.1654C8.01487 25.7967 8.23917 25.4617 8.52182 25.1796C8.80446 24.8976 9.1399 24.674 9.50898 24.5216C9.87806 24.3693 10.2735 24.2911 10.6728 24.2916C11.0721 24.2911 11.4676 24.3693 11.8367 24.5216C12.2058 24.674 12.5412 24.8976 12.8239 25.1796C13.1065 25.4617 13.3308 25.7967 13.484 26.1654C13.6371 26.5342 13.7161 26.9295 13.7165 27.3288ZM24.7667 35.468H7.58894V32.4094C7.58894 31.8462 8.0449 31.3896 8.60803 31.3896H24.7667V35.468ZM24.7667 30.3679H16.7991C16.1315 30.3676 15.4913 30.1024 15.0191 29.6305C14.5468 29.1586 14.2811 28.5186 14.2802 27.851C14.2811 27.1834 14.5468 26.5434 15.0191 26.0715C15.4913 25.5997 16.1315 25.3344 16.7991 25.3341H24.7667V30.3679ZM24.0561 22.6067C23.9639 22.4669 23.9001 22.3104 23.8684 22.1459C23.8367 21.9814 23.8377 21.8124 23.8713 21.6483C23.905 21.4842 23.9706 21.3284 24.0645 21.1897C24.1584 21.051 24.2787 20.9322 24.4185 20.84L27.6135 18.7349L26.7126 16.255H25.4668L26.1988 18.2673L23.7729 19.8657C23.5047 20.0418 23.2741 20.2692 23.0943 20.5349C22.9144 20.8005 22.789 21.0992 22.7252 21.4136C22.6597 21.728 22.6572 22.0523 22.7179 22.3677C22.7785 22.6831 22.9011 22.9833 23.0786 23.2511C23.2241 23.468 23.3994 23.6525 23.5962 23.8103H20.2389C20.4357 23.6525 20.6124 23.468 20.7566 23.2511C20.9342 22.9835 21.0569 22.6832 21.1174 22.3677C21.178 22.0523 21.1752 21.7279 21.1092 21.4136C21.0459 21.0989 20.9206 20.8 20.7408 20.5342C20.5609 20.2684 20.3301 20.0409 20.0616 19.8651L17.6369 18.2666L18.3657 16.2544H17.1212L16.2223 18.7343L19.4166 20.8394C19.5606 20.9296 19.6851 21.0476 19.7828 21.1867C19.8805 21.3257 19.9494 21.4828 19.9855 21.6489C20.0216 21.8149 20.0241 21.9865 19.9929 22.1535C19.9617 22.3205 19.8974 22.4796 19.8038 22.6214C19.7102 22.7632 19.5892 22.8849 19.4478 22.9792C19.3065 23.0736 19.1478 23.1387 18.9809 23.1708C18.8141 23.2029 18.6425 23.2013 18.4763 23.1662C18.31 23.131 18.1525 23.0629 18.013 22.9659L13.9886 20.3146C13.2917 19.8411 13.3586 19.1331 13.4865 18.8187L15.198 13.9453C15.5286 13.0269 16.1677 12.3092 17.9669 12.3092H25.8695C27.67 12.3092 28.3078 13.0262 28.6397 13.9453L30.3518 18.8187C30.4792 19.1337 30.5448 19.8411 29.8485 20.3146L25.8254 22.9659C25.5431 23.1522 25.1984 23.2189 24.867 23.1514C24.5356 23.084 24.2444 22.8879 24.0574 22.6061L24.0561 22.6067ZM35.763 35.468H25.8981V25.2704H35.763V35.468Z" fill="#07A3B2"/>
</svg>
